<mxfile host="app.diagrams.net" agent="Mozilla/5.0 (Windows NT 10.0; Win64; x64) AppleWebKit/537.36 (KHTML, like Gecko) Chrome/129.0.0.0 Safari/537.36" version="24.7.17">
  <diagram name="Page-1" id="bn0jsolGCWxsF-AcDAVi">
    <mxGraphModel dx="2876" dy="1103" grid="1" gridSize="10" guides="1" tooltips="1" connect="1" arrows="1" fold="1" page="1" pageScale="1" pageWidth="827" pageHeight="1169" math="0" shadow="0">
      <root>
        <mxCell id="0" />
        <mxCell id="1" parent="0" />
        <mxCell id="mlF56jz7VfACYJRULJU8-3" value="" style="edgeStyle=orthogonalEdgeStyle;rounded=0;orthogonalLoop=1;jettySize=auto;html=1;" parent="1" source="mlF56jz7VfACYJRULJU8-1" target="mlF56jz7VfACYJRULJU8-2" edge="1">
          <mxGeometry relative="1" as="geometry" />
        </mxCell>
        <mxCell id="mlF56jz7VfACYJRULJU8-1" value="Start program" style="ellipse;whiteSpace=wrap;html=1;" parent="1" vertex="1">
          <mxGeometry x="354" y="80" width="120" height="80" as="geometry" />
        </mxCell>
        <mxCell id="mlF56jz7VfACYJRULJU8-2" value="Enter principal amount:" style="shape=parallelogram;perimeter=parallelogramPerimeter;whiteSpace=wrap;html=1;fixedSize=1;" parent="1" vertex="1">
          <mxGeometry x="354" y="190" width="120" height="60" as="geometry" />
        </mxCell>
        <mxCell id="mlF56jz7VfACYJRULJU8-19" value="CASE 1" style="edgeStyle=orthogonalEdgeStyle;rounded=0;orthogonalLoop=1;jettySize=auto;html=1;" parent="1" edge="1">
          <mxGeometry relative="1" as="geometry">
            <mxPoint x="-197" y="344" as="sourcePoint" />
            <mxPoint x="-480" y="454" as="targetPoint" />
          </mxGeometry>
        </mxCell>
        <mxCell id="mlF56jz7VfACYJRULJU8-21" value="CASE 4&amp;nbsp;" style="edgeStyle=orthogonalEdgeStyle;rounded=0;orthogonalLoop=1;jettySize=auto;html=1;" parent="1" source="mlF56jz7VfACYJRULJU8-6" target="mlF56jz7VfACYJRULJU8-20" edge="1">
          <mxGeometry relative="1" as="geometry">
            <Array as="points">
              <mxPoint x="-300" y="360" />
            </Array>
          </mxGeometry>
        </mxCell>
        <mxCell id="mlF56jz7VfACYJRULJU8-25" style="edgeStyle=orthogonalEdgeStyle;rounded=0;orthogonalLoop=1;jettySize=auto;html=1;entryX=0.5;entryY=0;entryDx=0;entryDy=0;" parent="1" target="mlF56jz7VfACYJRULJU8-23" edge="1">
          <mxGeometry relative="1" as="geometry">
            <mxPoint x="-90" y="344" as="sourcePoint" />
            <mxPoint x="150" y="430" as="targetPoint" />
            <Array as="points">
              <mxPoint x="-90" y="345" />
              <mxPoint x="151" y="345" />
            </Array>
          </mxGeometry>
        </mxCell>
        <mxCell id="mlF56jz7VfACYJRULJU8-30" value="DEFAULT" style="edgeLabel;html=1;align=center;verticalAlign=middle;resizable=0;points=[];" parent="mlF56jz7VfACYJRULJU8-25" vertex="1" connectable="0">
          <mxGeometry x="0.7136" y="-2" relative="1" as="geometry">
            <mxPoint as="offset" />
          </mxGeometry>
        </mxCell>
        <mxCell id="mlF56jz7VfACYJRULJU8-26" style="edgeStyle=orthogonalEdgeStyle;rounded=0;orthogonalLoop=1;jettySize=auto;html=1;entryX=0.5;entryY=0;entryDx=0;entryDy=0;" parent="1" source="mlF56jz7VfACYJRULJU8-6" target="mlF56jz7VfACYJRULJU8-24" edge="1">
          <mxGeometry relative="1" as="geometry">
            <Array as="points">
              <mxPoint x="-10" y="360" />
              <mxPoint x="-10" y="445" />
            </Array>
          </mxGeometry>
        </mxCell>
        <mxCell id="mlF56jz7VfACYJRULJU8-29" value="CASE 12" style="edgeLabel;html=1;align=center;verticalAlign=middle;resizable=0;points=[];" parent="mlF56jz7VfACYJRULJU8-26" vertex="1" connectable="0">
          <mxGeometry x="-0.4788" y="2" relative="1" as="geometry">
            <mxPoint as="offset" />
          </mxGeometry>
        </mxCell>
        <mxCell id="mlF56jz7VfACYJRULJU8-6" value="Enter the number of interest charges per year&amp;nbsp;" style="whiteSpace=wrap;html=1;" parent="1" vertex="1">
          <mxGeometry x="-210" y="305" width="120" height="60" as="geometry" />
        </mxCell>
        <mxCell id="mlF56jz7VfACYJRULJU8-8" value="Error: Intrest rate must be grater than 0" style="whiteSpace=wrap;html=1;" parent="1" vertex="1">
          <mxGeometry x="660" y="305" width="120" height="60" as="geometry" />
        </mxCell>
        <mxCell id="mlF56jz7VfACYJRULJU8-14" style="edgeStyle=orthogonalEdgeStyle;rounded=0;orthogonalLoop=1;jettySize=auto;html=1;entryX=1;entryY=0.5;entryDx=0;entryDy=0;" parent="1" source="mlF56jz7VfACYJRULJU8-13" target="mlF56jz7VfACYJRULJU8-6" edge="1">
          <mxGeometry relative="1" as="geometry" />
        </mxCell>
        <mxCell id="mlF56jz7VfACYJRULJU8-17" value="Else&amp;nbsp;" style="edgeLabel;html=1;align=center;verticalAlign=middle;resizable=0;points=[];" parent="mlF56jz7VfACYJRULJU8-14" vertex="1" connectable="0">
          <mxGeometry x="0.1918" y="2" relative="1" as="geometry">
            <mxPoint x="158" as="offset" />
          </mxGeometry>
        </mxCell>
        <mxCell id="mlF56jz7VfACYJRULJU8-15" style="edgeStyle=orthogonalEdgeStyle;rounded=0;orthogonalLoop=1;jettySize=auto;html=1;" parent="1" source="mlF56jz7VfACYJRULJU8-13" target="mlF56jz7VfACYJRULJU8-8" edge="1">
          <mxGeometry relative="1" as="geometry" />
        </mxCell>
        <mxCell id="mlF56jz7VfACYJRULJU8-16" value="if ( r &amp;lt;= 0 )" style="edgeLabel;html=1;align=center;verticalAlign=middle;resizable=0;points=[];" parent="mlF56jz7VfACYJRULJU8-15" vertex="1" connectable="0">
          <mxGeometry x="0.0541" y="-5" relative="1" as="geometry">
            <mxPoint x="-4" as="offset" />
          </mxGeometry>
        </mxCell>
        <mxCell id="mlF56jz7VfACYJRULJU8-13" value="&lt;br&gt;&lt;font style=&quot;font-size: 18px;&quot;&gt;&lt;span style=&quot;color: rgb(0, 0, 0); font-family: Helvetica; font-style: normal; font-variant-ligatures: normal; font-variant-caps: normal; font-weight: 400; letter-spacing: normal; orphans: 2; text-align: center; text-indent: 0px; text-transform: none; widows: 2; word-spacing: 0px; -webkit-text-stroke-width: 0px; white-space: normal; background-color: rgb(251, 251, 251); text-decoration-thickness: initial; text-decoration-style: initial; text-decoration-color: initial; float: none; display: inline !important;&quot;&gt;Enter the annual intrest rate ( r ) in decimal form&amp;nbsp; &amp;nbsp;&lt;/span&gt;&lt;br&gt;&lt;/font&gt;" style="rounded=1;whiteSpace=wrap;html=1;" parent="1" vertex="1">
          <mxGeometry x="316" y="280" width="196" height="110" as="geometry" />
        </mxCell>
        <mxCell id="mlF56jz7VfACYJRULJU8-41" style="edgeStyle=orthogonalEdgeStyle;rounded=0;orthogonalLoop=1;jettySize=auto;html=1;entryX=0.25;entryY=0;entryDx=0;entryDy=0;" parent="1" source="mlF56jz7VfACYJRULJU8-18" target="mlF56jz7VfACYJRULJU8-35" edge="1">
          <mxGeometry relative="1" as="geometry">
            <Array as="points">
              <mxPoint x="-473" y="560" />
              <mxPoint x="-205" y="560" />
            </Array>
          </mxGeometry>
        </mxCell>
        <mxCell id="mlF56jz7VfACYJRULJU8-18" value="You chose yearly compounding" style="whiteSpace=wrap;html=1;" parent="1" vertex="1">
          <mxGeometry x="-533" y="445" width="120" height="60" as="geometry" />
        </mxCell>
        <mxCell id="mlF56jz7VfACYJRULJU8-40" style="edgeStyle=orthogonalEdgeStyle;rounded=0;orthogonalLoop=1;jettySize=auto;html=1;entryX=0.5;entryY=0;entryDx=0;entryDy=0;" parent="1" source="mlF56jz7VfACYJRULJU8-20" target="mlF56jz7VfACYJRULJU8-35" edge="1">
          <mxGeometry relative="1" as="geometry" />
        </mxCell>
        <mxCell id="mlF56jz7VfACYJRULJU8-20" value="You chose quarterly compounding&lt;span style=&quot;white-space: pre;&quot;&gt;&#x9;&lt;/span&gt;" style="whiteSpace=wrap;html=1;" parent="1" vertex="1">
          <mxGeometry x="-360" y="445" width="120" height="60" as="geometry" />
        </mxCell>
        <mxCell id="mlF56jz7VfACYJRULJU8-32" style="edgeStyle=orthogonalEdgeStyle;rounded=0;orthogonalLoop=1;jettySize=auto;html=1;" parent="1" source="mlF56jz7VfACYJRULJU8-23" target="mlF56jz7VfACYJRULJU8-31" edge="1">
          <mxGeometry relative="1" as="geometry" />
        </mxCell>
        <mxCell id="mlF56jz7VfACYJRULJU8-23" value="Invalid input" style="rounded=0;whiteSpace=wrap;html=1;" parent="1" vertex="1">
          <mxGeometry x="90" y="445" width="120" height="60" as="geometry" />
        </mxCell>
        <mxCell id="mlF56jz7VfACYJRULJU8-39" style="edgeStyle=orthogonalEdgeStyle;rounded=0;orthogonalLoop=1;jettySize=auto;html=1;entryX=0.75;entryY=0;entryDx=0;entryDy=0;" parent="1" source="mlF56jz7VfACYJRULJU8-24" target="mlF56jz7VfACYJRULJU8-35" edge="1">
          <mxGeometry relative="1" as="geometry" />
        </mxCell>
        <mxCell id="mlF56jz7VfACYJRULJU8-24" value="you chose monthly compounding&amp;nbsp;" style="rounded=0;whiteSpace=wrap;html=1;" parent="1" vertex="1">
          <mxGeometry x="-70" y="445" width="120" height="60" as="geometry" />
        </mxCell>
        <mxCell id="mlF56jz7VfACYJRULJU8-31" value="Erorr" style="ellipse;whiteSpace=wrap;html=1;" parent="1" vertex="1">
          <mxGeometry x="354" y="435" width="120" height="80" as="geometry" />
        </mxCell>
        <mxCell id="mlF56jz7VfACYJRULJU8-34" style="edgeStyle=orthogonalEdgeStyle;rounded=0;orthogonalLoop=1;jettySize=auto;html=1;entryX=0.992;entryY=0.6;entryDx=0;entryDy=0;entryPerimeter=0;" parent="1" edge="1">
          <mxGeometry relative="1" as="geometry">
            <mxPoint x="720" y="358" as="sourcePoint" />
            <mxPoint x="473.03999999999996" y="476" as="targetPoint" />
            <Array as="points">
              <mxPoint x="720" y="476" />
            </Array>
          </mxGeometry>
        </mxCell>
        <mxCell id="mlF56jz7VfACYJRULJU8-43" value="" style="edgeStyle=orthogonalEdgeStyle;rounded=0;orthogonalLoop=1;jettySize=auto;html=1;" parent="1" source="mlF56jz7VfACYJRULJU8-35" target="mlF56jz7VfACYJRULJU8-42" edge="1">
          <mxGeometry relative="1" as="geometry" />
        </mxCell>
        <mxCell id="mlF56jz7VfACYJRULJU8-35" value="Enter the time investing time" style="shape=parallelogram;perimeter=parallelogramPerimeter;whiteSpace=wrap;html=1;fixedSize=1;" parent="1" vertex="1">
          <mxGeometry x="-260" y="585" width="220" height="120" as="geometry" />
        </mxCell>
        <mxCell id="mlF56jz7VfACYJRULJU8-45" value="" style="edgeStyle=orthogonalEdgeStyle;rounded=0;orthogonalLoop=1;jettySize=auto;html=1;" parent="1" source="mlF56jz7VfACYJRULJU8-42" target="mlF56jz7VfACYJRULJU8-44" edge="1">
          <mxGeometry relative="1" as="geometry" />
        </mxCell>
        <UserObject label="&#xa;&lt;b id=&quot;docs-internal-guid-8a2ce41f-7fff-a176-3323-6150b68d1a34&quot; style=&quot;font-weight:normal;&quot;&gt;&lt;span style=&quot;font-size:11pt;font-family:Arial,sans-serif;color:#000000;background-color:transparent;font-weight:400;font-style:normal;font-variant:normal;text-decoration:none;vertical-align:baseline;white-space:pre;white-space:pre-wrap;&quot;&gt;&lt;span style=&quot;border:none;display:inline-block;overflow:hidden;width:188px;height:40px;&quot;&gt;&lt;img style=&quot;margin-left:0px;margin-top:0px;&quot; height=&quot;40&quot; width=&quot;188&quot; src=&quot;https://lh7-rt.googleusercontent.com/docsz/AD_4nXeWfT5MPssCGp271LFcxCXw9GnsnMAe7u33rgO0DAX2n7UxOfDFPK2MjMlrLGis0ITauQYEfbUzLMcwQm4awRf2QKcXRTQBiEIWSZa9lFb28l4C5Lf7hP5F57M9bf_7LYrRUgaeC_c8znuLtWTLUxRhBiyTYQl3D3085YDX5eXm0_juck9pyN4?key=9zp6c52rNqXeIYIoIUYr0Q&quot;&gt;&lt;/span&gt;&lt;/span&gt;&lt;/b&gt;&#xa;&#xa;" link="&#xa;&lt;b id=&quot;docs-internal-guid-8a2ce41f-7fff-a176-3323-6150b68d1a34&quot; style=&quot;font-weight:normal;&quot;&gt;&lt;span style=&quot;font-size:11pt;font-family:Arial,sans-serif;color:#000000;background-color:transparent;font-weight:400;font-style:normal;font-variant:normal;text-decoration:none;vertical-align:baseline;white-space:pre;white-space:pre-wrap;&quot;&gt;&lt;span style=&quot;border:none;display:inline-block;overflow:hidden;width:188px;height:40px;&quot;&gt;&lt;img style=&quot;margin-left:0px;margin-top:0px;&quot; height=&quot;40&quot; width=&quot;188&quot; src=&quot;https://lh7-rt.googleusercontent.com/docsz/AD_4nXeWfT5MPssCGp271LFcxCXw9GnsnMAe7u33rgO0DAX2n7UxOfDFPK2MjMlrLGis0ITauQYEfbUzLMcwQm4awRf2QKcXRTQBiEIWSZa9lFb28l4C5Lf7hP5F57M9bf_7LYrRUgaeC_c8znuLtWTLUxRhBiyTYQl3D3085YDX5eXm0_juck9pyN4?key=9zp6c52rNqXeIYIoIUYr0Q&quot;&gt;&lt;/span&gt;&lt;/span&gt;&lt;/b&gt;&#xa;&#xa;" id="mlF56jz7VfACYJRULJU8-42">
          <mxCell style="shape=hexagon;perimeter=hexagonPerimeter2;whiteSpace=wrap;html=1;fixedSize=1;" parent="1" vertex="1">
            <mxGeometry x="-270" y="750" width="240" height="140" as="geometry" />
          </mxCell>
        </UserObject>
        <mxCell id="mlF56jz7VfACYJRULJU8-44" value="&lt;font style=&quot;font-size: 18px;&quot;&gt;Total investing amount :&amp;nbsp;&lt;/font&gt;&lt;div&gt;&lt;font size=&quot;3&quot;&gt;Profit :&lt;/font&gt;&lt;/div&gt;" style="rounded=1;whiteSpace=wrap;html=1;" parent="1" vertex="1">
          <mxGeometry x="-310" y="940" width="320" height="100" as="geometry" />
        </mxCell>
        <mxCell id="mlF56jz7VfACYJRULJU8-94" value="" style="edgeStyle=orthogonalEdgeStyle;rounded=0;orthogonalLoop=1;jettySize=auto;html=1;" parent="1" source="mlF56jz7VfACYJRULJU8-95" target="mlF56jz7VfACYJRULJU8-96" edge="1">
          <mxGeometry relative="1" as="geometry" />
        </mxCell>
        <mxCell id="mlF56jz7VfACYJRULJU8-95" value="Start program" style="ellipse;whiteSpace=wrap;html=1;" parent="1" vertex="1">
          <mxGeometry x="354" y="80" width="120" height="80" as="geometry" />
        </mxCell>
        <mxCell id="mlF56jz7VfACYJRULJU8-96" value="Enter principal amount:" style="shape=parallelogram;perimeter=parallelogramPerimeter;whiteSpace=wrap;html=1;fixedSize=1;" parent="1" vertex="1">
          <mxGeometry x="354" y="190" width="120" height="60" as="geometry" />
        </mxCell>
        <mxCell id="mlF56jz7VfACYJRULJU8-97" value="CASE 1" style="edgeStyle=orthogonalEdgeStyle;rounded=0;orthogonalLoop=1;jettySize=auto;html=1;" parent="1" edge="1">
          <mxGeometry relative="1" as="geometry">
            <mxPoint x="-197" y="344" as="sourcePoint" />
            <mxPoint x="-480" y="454" as="targetPoint" />
          </mxGeometry>
        </mxCell>
        <mxCell id="mlF56jz7VfACYJRULJU8-98" value="CASE 4&amp;nbsp;" style="edgeStyle=orthogonalEdgeStyle;rounded=0;orthogonalLoop=1;jettySize=auto;html=1;" parent="1" source="mlF56jz7VfACYJRULJU8-103" target="mlF56jz7VfACYJRULJU8-113" edge="1">
          <mxGeometry relative="1" as="geometry">
            <Array as="points">
              <mxPoint x="-300" y="360" />
            </Array>
          </mxGeometry>
        </mxCell>
        <mxCell id="mlF56jz7VfACYJRULJU8-99" style="edgeStyle=orthogonalEdgeStyle;rounded=0;orthogonalLoop=1;jettySize=auto;html=1;entryX=0.5;entryY=0;entryDx=0;entryDy=0;" parent="1" target="mlF56jz7VfACYJRULJU8-115" edge="1">
          <mxGeometry relative="1" as="geometry">
            <mxPoint x="-90" y="344" as="sourcePoint" />
            <mxPoint x="150" y="430" as="targetPoint" />
            <Array as="points">
              <mxPoint x="-90" y="345" />
              <mxPoint x="151" y="345" />
            </Array>
          </mxGeometry>
        </mxCell>
        <mxCell id="mlF56jz7VfACYJRULJU8-100" value="DEFAULT" style="edgeLabel;html=1;align=center;verticalAlign=middle;resizable=0;points=[];" parent="mlF56jz7VfACYJRULJU8-99" vertex="1" connectable="0">
          <mxGeometry x="0.7136" y="-2" relative="1" as="geometry">
            <mxPoint as="offset" />
          </mxGeometry>
        </mxCell>
        <mxCell id="mlF56jz7VfACYJRULJU8-101" style="edgeStyle=orthogonalEdgeStyle;rounded=0;orthogonalLoop=1;jettySize=auto;html=1;entryX=0.5;entryY=0;entryDx=0;entryDy=0;" parent="1" source="mlF56jz7VfACYJRULJU8-103" target="mlF56jz7VfACYJRULJU8-117" edge="1">
          <mxGeometry relative="1" as="geometry">
            <Array as="points">
              <mxPoint x="-10" y="360" />
              <mxPoint x="-10" y="445" />
            </Array>
          </mxGeometry>
        </mxCell>
        <mxCell id="mlF56jz7VfACYJRULJU8-102" value="CASE 12" style="edgeLabel;html=1;align=center;verticalAlign=middle;resizable=0;points=[];" parent="mlF56jz7VfACYJRULJU8-101" vertex="1" connectable="0">
          <mxGeometry x="-0.4788" y="2" relative="1" as="geometry">
            <mxPoint as="offset" />
          </mxGeometry>
        </mxCell>
        <mxCell id="mlF56jz7VfACYJRULJU8-103" value="Enter the number of interest charges per year&amp;nbsp;" style="whiteSpace=wrap;html=1;" parent="1" vertex="1">
          <mxGeometry x="-210" y="305" width="120" height="60" as="geometry" />
        </mxCell>
        <mxCell id="mlF56jz7VfACYJRULJU8-104" value="Error: Intrest rate must be grater than 0" style="whiteSpace=wrap;html=1;" parent="1" vertex="1">
          <mxGeometry x="660" y="305" width="120" height="60" as="geometry" />
        </mxCell>
        <mxCell id="mlF56jz7VfACYJRULJU8-105" style="edgeStyle=orthogonalEdgeStyle;rounded=0;orthogonalLoop=1;jettySize=auto;html=1;entryX=1;entryY=0.5;entryDx=0;entryDy=0;" parent="1" source="mlF56jz7VfACYJRULJU8-109" target="mlF56jz7VfACYJRULJU8-103" edge="1">
          <mxGeometry relative="1" as="geometry" />
        </mxCell>
        <mxCell id="mlF56jz7VfACYJRULJU8-106" value="Else&amp;nbsp;" style="edgeLabel;html=1;align=center;verticalAlign=middle;resizable=0;points=[];" parent="mlF56jz7VfACYJRULJU8-105" vertex="1" connectable="0">
          <mxGeometry x="0.1918" y="2" relative="1" as="geometry">
            <mxPoint x="158" as="offset" />
          </mxGeometry>
        </mxCell>
        <mxCell id="mlF56jz7VfACYJRULJU8-107" style="edgeStyle=orthogonalEdgeStyle;rounded=0;orthogonalLoop=1;jettySize=auto;html=1;" parent="1" source="mlF56jz7VfACYJRULJU8-109" target="mlF56jz7VfACYJRULJU8-104" edge="1">
          <mxGeometry relative="1" as="geometry" />
        </mxCell>
        <mxCell id="mlF56jz7VfACYJRULJU8-108" value="if ( r &amp;lt;= 0 )" style="edgeLabel;html=1;align=center;verticalAlign=middle;resizable=0;points=[];" parent="mlF56jz7VfACYJRULJU8-107" vertex="1" connectable="0">
          <mxGeometry x="0.0541" y="-5" relative="1" as="geometry">
            <mxPoint x="-4" as="offset" />
          </mxGeometry>
        </mxCell>
        <mxCell id="mlF56jz7VfACYJRULJU8-109" value="&lt;br&gt;&lt;font style=&quot;font-size: 18px;&quot;&gt;&lt;span style=&quot;color: rgb(0, 0, 0); font-family: Helvetica; font-style: normal; font-variant-ligatures: normal; font-variant-caps: normal; font-weight: 400; letter-spacing: normal; orphans: 2; text-align: center; text-indent: 0px; text-transform: none; widows: 2; word-spacing: 0px; -webkit-text-stroke-width: 0px; white-space: normal; background-color: rgb(251, 251, 251); text-decoration-thickness: initial; text-decoration-style: initial; text-decoration-color: initial; float: none; display: inline !important;&quot;&gt;Enter the annual intrest rate ( r ) in decimal form&amp;nbsp; &amp;nbsp;&lt;/span&gt;&lt;br&gt;&lt;/font&gt;" style="rounded=1;whiteSpace=wrap;html=1;" parent="1" vertex="1">
          <mxGeometry x="316" y="280" width="196" height="110" as="geometry" />
        </mxCell>
        <mxCell id="mlF56jz7VfACYJRULJU8-110" style="edgeStyle=orthogonalEdgeStyle;rounded=0;orthogonalLoop=1;jettySize=auto;html=1;entryX=0.25;entryY=0;entryDx=0;entryDy=0;" parent="1" source="mlF56jz7VfACYJRULJU8-111" target="mlF56jz7VfACYJRULJU8-121" edge="1">
          <mxGeometry relative="1" as="geometry">
            <Array as="points">
              <mxPoint x="-473" y="560" />
              <mxPoint x="-205" y="560" />
            </Array>
          </mxGeometry>
        </mxCell>
        <mxCell id="mlF56jz7VfACYJRULJU8-111" value="You chose yearly compounding" style="whiteSpace=wrap;html=1;" parent="1" vertex="1">
          <mxGeometry x="-533" y="445" width="120" height="60" as="geometry" />
        </mxCell>
        <mxCell id="mlF56jz7VfACYJRULJU8-112" style="edgeStyle=orthogonalEdgeStyle;rounded=0;orthogonalLoop=1;jettySize=auto;html=1;entryX=0.5;entryY=0;entryDx=0;entryDy=0;" parent="1" source="mlF56jz7VfACYJRULJU8-113" target="mlF56jz7VfACYJRULJU8-121" edge="1">
          <mxGeometry relative="1" as="geometry" />
        </mxCell>
        <mxCell id="mlF56jz7VfACYJRULJU8-113" value="You chose quarterly compounding&lt;span style=&quot;white-space: pre;&quot;&gt;&#x9;&lt;/span&gt;" style="whiteSpace=wrap;html=1;" parent="1" vertex="1">
          <mxGeometry x="-360" y="445" width="120" height="60" as="geometry" />
        </mxCell>
        <mxCell id="mlF56jz7VfACYJRULJU8-114" style="edgeStyle=orthogonalEdgeStyle;rounded=0;orthogonalLoop=1;jettySize=auto;html=1;" parent="1" source="mlF56jz7VfACYJRULJU8-115" target="mlF56jz7VfACYJRULJU8-118" edge="1">
          <mxGeometry relative="1" as="geometry" />
        </mxCell>
        <mxCell id="mlF56jz7VfACYJRULJU8-115" value="Invalid input" style="rounded=0;whiteSpace=wrap;html=1;" parent="1" vertex="1">
          <mxGeometry x="90" y="445" width="120" height="60" as="geometry" />
        </mxCell>
        <mxCell id="mlF56jz7VfACYJRULJU8-116" style="edgeStyle=orthogonalEdgeStyle;rounded=0;orthogonalLoop=1;jettySize=auto;html=1;entryX=0.75;entryY=0;entryDx=0;entryDy=0;" parent="1" source="mlF56jz7VfACYJRULJU8-117" target="mlF56jz7VfACYJRULJU8-121" edge="1">
          <mxGeometry relative="1" as="geometry" />
        </mxCell>
        <mxCell id="mlF56jz7VfACYJRULJU8-117" value="you chose monthly compounding&amp;nbsp;" style="rounded=0;whiteSpace=wrap;html=1;" parent="1" vertex="1">
          <mxGeometry x="-70" y="445" width="120" height="60" as="geometry" />
        </mxCell>
        <mxCell id="mlF56jz7VfACYJRULJU8-118" value="Erorr" style="ellipse;whiteSpace=wrap;html=1;" parent="1" vertex="1">
          <mxGeometry x="354" y="435" width="120" height="80" as="geometry" />
        </mxCell>
        <mxCell id="mlF56jz7VfACYJRULJU8-119" style="edgeStyle=orthogonalEdgeStyle;rounded=0;orthogonalLoop=1;jettySize=auto;html=1;entryX=0.992;entryY=0.6;entryDx=0;entryDy=0;entryPerimeter=0;" parent="1" edge="1">
          <mxGeometry relative="1" as="geometry">
            <mxPoint x="720" y="358" as="sourcePoint" />
            <mxPoint x="473.03999999999996" y="476" as="targetPoint" />
            <Array as="points">
              <mxPoint x="720" y="476" />
            </Array>
          </mxGeometry>
        </mxCell>
        <mxCell id="mlF56jz7VfACYJRULJU8-120" value="" style="edgeStyle=orthogonalEdgeStyle;rounded=0;orthogonalLoop=1;jettySize=auto;html=1;" parent="1" source="mlF56jz7VfACYJRULJU8-121" target="mlF56jz7VfACYJRULJU8-123" edge="1">
          <mxGeometry relative="1" as="geometry" />
        </mxCell>
        <mxCell id="mlF56jz7VfACYJRULJU8-121" value="Enter the time investing time" style="shape=parallelogram;perimeter=parallelogramPerimeter;whiteSpace=wrap;html=1;fixedSize=1;" parent="1" vertex="1">
          <mxGeometry x="-260" y="585" width="220" height="120" as="geometry" />
        </mxCell>
        <mxCell id="mlF56jz7VfACYJRULJU8-122" value="" style="edgeStyle=orthogonalEdgeStyle;rounded=0;orthogonalLoop=1;jettySize=auto;html=1;" parent="1" source="mlF56jz7VfACYJRULJU8-123" target="mlF56jz7VfACYJRULJU8-124" edge="1">
          <mxGeometry relative="1" as="geometry" />
        </mxCell>
        <UserObject label="&#xa;&lt;b id=&quot;docs-internal-guid-8a2ce41f-7fff-a176-3323-6150b68d1a34&quot; style=&quot;font-weight:normal;&quot;&gt;&lt;span style=&quot;font-size:11pt;font-family:Arial,sans-serif;color:#000000;background-color:transparent;font-weight:400;font-style:normal;font-variant:normal;text-decoration:none;vertical-align:baseline;white-space:pre;white-space:pre-wrap;&quot;&gt;&lt;span style=&quot;border:none;display:inline-block;overflow:hidden;width:188px;height:40px;&quot;&gt;&lt;img style=&quot;margin-left:0px;margin-top:0px;&quot; height=&quot;40&quot; width=&quot;188&quot; src=&quot;https://lh7-rt.googleusercontent.com/docsz/AD_4nXeWfT5MPssCGp271LFcxCXw9GnsnMAe7u33rgO0DAX2n7UxOfDFPK2MjMlrLGis0ITauQYEfbUzLMcwQm4awRf2QKcXRTQBiEIWSZa9lFb28l4C5Lf7hP5F57M9bf_7LYrRUgaeC_c8znuLtWTLUxRhBiyTYQl3D3085YDX5eXm0_juck9pyN4?key=9zp6c52rNqXeIYIoIUYr0Q&quot;&gt;&lt;/span&gt;&lt;/span&gt;&lt;/b&gt;&#xa;&#xa;" link="&#xa;&lt;b id=&quot;docs-internal-guid-8a2ce41f-7fff-a176-3323-6150b68d1a34&quot; style=&quot;font-weight:normal;&quot;&gt;&lt;span style=&quot;font-size:11pt;font-family:Arial,sans-serif;color:#000000;background-color:transparent;font-weight:400;font-style:normal;font-variant:normal;text-decoration:none;vertical-align:baseline;white-space:pre;white-space:pre-wrap;&quot;&gt;&lt;span style=&quot;border:none;display:inline-block;overflow:hidden;width:188px;height:40px;&quot;&gt;&lt;img style=&quot;margin-left:0px;margin-top:0px;&quot; height=&quot;40&quot; width=&quot;188&quot; src=&quot;https://lh7-rt.googleusercontent.com/docsz/AD_4nXeWfT5MPssCGp271LFcxCXw9GnsnMAe7u33rgO0DAX2n7UxOfDFPK2MjMlrLGis0ITauQYEfbUzLMcwQm4awRf2QKcXRTQBiEIWSZa9lFb28l4C5Lf7hP5F57M9bf_7LYrRUgaeC_c8znuLtWTLUxRhBiyTYQl3D3085YDX5eXm0_juck9pyN4?key=9zp6c52rNqXeIYIoIUYr0Q&quot;&gt;&lt;/span&gt;&lt;/span&gt;&lt;/b&gt;&#xa;&#xa;" id="mlF56jz7VfACYJRULJU8-123">
          <mxCell style="shape=hexagon;perimeter=hexagonPerimeter2;whiteSpace=wrap;html=1;fixedSize=1;" parent="1" vertex="1">
            <mxGeometry x="-270" y="750" width="240" height="140" as="geometry" />
          </mxCell>
        </UserObject>
        <mxCell id="mlF56jz7VfACYJRULJU8-124" value="&lt;font style=&quot;font-size: 18px;&quot;&gt;Total investing amount :&amp;nbsp;&lt;/font&gt;&lt;div&gt;&lt;font size=&quot;3&quot;&gt;Profit :&lt;/font&gt;&lt;/div&gt;" style="rounded=1;whiteSpace=wrap;html=1;" parent="1" vertex="1">
          <mxGeometry x="-310" y="940" width="320" height="100" as="geometry" />
        </mxCell>
      </root>
    </mxGraphModel>
  </diagram>
</mxfile>
